HIERARCHY
ROOT root
{
	OFFSET	0.000000	0.000000	0.000000
	CHANNELS 6 Xposition Yposition Zposition Zrotation Yrotation Xrotation
	JOINT lhipjoint
	{
		OFFSET	0.000000	0.000000	0.000000
		CHANNELS 3 Zrotation Yrotation Xrotation
		JOINT lfemur
		{
			OFFSET	1.656736	-1.802822	0.624766
			CHANNELS 3 Zrotation Yrotation Xrotation
			JOINT ltibia
			{
				OFFSET	2.597200	-7.135754	0.000000
				CHANNELS 3 Zrotation Yrotation Xrotation
				JOINT lfoot
				{
					OFFSET	2.492357	-6.847701	0.000000
					CHANNELS 3 Zrotation Yrotation Xrotation
					JOINT ltoes
					{
						OFFSET	0.197038	-0.541357	2.145811
						CHANNELS 3 Zrotation Yrotation Xrotation
						End Site
						{
							OFFSET	0.000000	-0.000000	1.112490
						}
					}
				}
			}
		}
	}
	JOINT rhipjoint
	{
		OFFSET	0.000000	0.000000	0.000000
		CHANNELS 3 Zrotation Yrotation Xrotation
		JOINT rfemur
		{
			OFFSET	-1.610701	-1.802823	0.624765
			CHANNELS 3 Zrotation Yrotation Xrotation
			JOINT rtibia
			{
				OFFSET	-2.595021	-7.129768	0.000000
				CHANNELS 3 Zrotation Yrotation Xrotation
				JOINT rfoot
				{
					OFFSET	-2.467804	-6.780241	0.000000
					CHANNELS 3 Zrotation Yrotation Xrotation
					JOINT rtoes
					{
						OFFSET	-0.230239	-0.632577	2.133676
						CHANNELS 3 Zrotation Yrotation Xrotation
						End Site
						{
							OFFSET	-0.000000	-0.000000	1.115690
						}
					}
				}
			}
		}
	}
	JOINT lowerback
	{
		OFFSET	0.000000	0.000000	0.000000
		CHANNELS 3 Zrotation Yrotation Xrotation
		JOINT upperback
		{
			OFFSET	0.019612	2.054496	-0.141116
			CHANNELS 3 Zrotation Yrotation Xrotation
			JOINT thorax
			{
				OFFSET	0.010210	2.064356	-0.059210
				CHANNELS 3 Zrotation Yrotation Xrotation
				JOINT lowerneck
				{
					OFFSET	0.001509	2.068054	0.008037
					CHANNELS 3 Zrotation Yrotation Xrotation
					JOINT upperneck
					{
						OFFSET	0.007130	1.567112	0.149683
						CHANNELS 3 Zrotation Yrotation Xrotation
						JOINT head
						{
							OFFSET	0.034286	1.560409	-0.100058
							CHANNELS 3 Zrotation Yrotation Xrotation
							End Site
							{
								OFFSET	0.013051	1.625595	-0.052648
							}
						}
					}
				}
				JOINT lclavicle
				{
					OFFSET	0.001509	2.068054	0.008037
					CHANNELS 3 Zrotation Yrotation Xrotation
					JOINT lhumerus
					{
						OFFSET	3.542050	0.904362	-0.173638
						CHANNELS 3 Zrotation Yrotation Xrotation
						JOINT lradius
						{
							OFFSET	4.865130	-0.000000	-0.000000
							CHANNELS 3 Zrotation Yrotation Xrotation
							JOINT lwrist
							{
								OFFSET	3.355540	-0.000000	0.000000
								CHANNELS 3 Zrotation Yrotation Xrotation
								JOINT lhand
								{
									OFFSET	1.677770	-0.000000	0.000000
									CHANNELS 3 Zrotation Yrotation Xrotation
									JOINT lfingers
									{
										OFFSET	0.661175	-0.000000	0.000000
										CHANNELS 3 Zrotation Yrotation Xrotation
										End Site
										{
											OFFSET	0.533057	-0.000000	0.000000
										}
									}
								}
								JOINT lthumb
								{
									OFFSET	1.677770	-0.000000	0.000000
									CHANNELS 3 Zrotation Yrotation Xrotation
									End Site
									{
										OFFSET	0.541196	-0.000000	0.541196
									}
								}
							}
						}
					}
				}
				JOINT rclavicle
				{
					OFFSET	0.001509	2.068054	0.008037
					CHANNELS 3 Zrotation Yrotation Xrotation
					JOINT rhumerus
					{
						OFFSET	-3.498016	0.759940	-0.326156
						CHANNELS 3 Zrotation Yrotation Xrotation
						JOINT rradius
						{
							OFFSET	-5.026490	-0.000000	0.000000
							CHANNELS 3 Zrotation Yrotation Xrotation
							JOINT rwrist
							{
								OFFSET	-3.364310	-0.000000	0.000000
								CHANNELS 3 Zrotation Yrotation Xrotation
								JOINT rhand
								{
									OFFSET	-1.682160	-0.000000	0.000000
									CHANNELS 3 Zrotation Yrotation Xrotation
									JOINT rfingers
									{
										OFFSET	-0.730406	-0.000000	0.000000
										CHANNELS 3 Zrotation Yrotation Xrotation
										End Site
										{
											OFFSET	-0.588872	-0.000000	0.000000
										}
									}
								}
								JOINT rthumb
								{
									OFFSET	-1.682160	-0.000000	0.000000
									CHANNELS 3 Zrotation Yrotation Xrotation
									End Site
									{
										OFFSET	-0.597863	-0.000000	0.597863
									}
								}
							}
						}
					}
				}
			}
		}
	}
}
MOTION
Frames:	8
Frame Time:	0.008333
	9.932450	17.623199	-3.589070	4.501240	-20.794199	-9.399899	0.000000	0.000000	0.000000	-21.609056	-3.960311	-5.864430	0.617904	5.030672	13.996063	-0.805072	15.793568	-3.623299	0.189784	-2.805631	-7.738080	0.000000	0.000000	0.000000	16.891516	-5.706705	7.273753	-1.074881	-6.590328	18.507208	-0.948658	-12.537051	-26.832809	-0.008680	-0.601598	1.653167	0.764278	0.405095	1.008260	0.554632	0.533948	1.687970	0.139626	0.271155	1.164400	-1.782380	2.913560	-12.637700	0.714888	4.111520	4.708650	0.850064	2.028300	3.745110	-1.782380	-0.000000	-0.000000	-97.897903	-33.360527	53.333626	36.721714	-46.003120	-16.039534	0.000001	-0.000002	-45.583405	49.405609	19.078575	20.878603	-7.125019	0.000000	0.000000	24.004869	56.310921	6.938816	-1.782380	-0.000000	-0.000000	96.353348	28.942299	97.039604	-26.431524	37.631660	-9.149879	0.000001	-0.000002	-40.616592	-49.039875	14.582495	-16.174276	7.125019	0.000000	0.000000	-13.935137	-8.836360	-11.999215
	9.930020	17.622801	-3.593290	4.115030	-20.737604	-9.272601	0.000000	0.000000	0.000000	-21.178938	-4.164088	-6.350431	0.701327	5.352918	14.917937	-0.798971	15.646099	-4.469707	0.111690	-2.154782	-5.933613	0.000000	0.000000	0.000000	17.310656	-5.840841	7.608653	-0.996084	-6.351592	17.808025	-0.861403	-12.878357	-26.493671	-0.003157	-0.362848	0.996977	1.248400	0.451091	0.947839	0.637315	0.594756	1.655460	-0.046469	0.306669	1.169510	-2.159280	2.716641	-12.635302	0.970009	3.890241	4.793921	0.988235	1.923110	3.766330	-2.159280	0.000000	0.000000	-97.927574	-33.940273	53.916893	37.137375	-46.279415	-16.339251	0.000001	-0.000002	-45.703590	49.377182	19.165216	20.942743	-7.125019	0.000000	0.000000	24.002314	56.413761	6.999019	-2.159280	0.000000	0.000000	96.391136	29.360996	96.373665	-26.434231	37.634285	-9.151524	0.000001	-0.000002	-39.970791	-49.027885	14.593470	-16.179081	7.125019	0.000000	0.000000	-13.925197	-8.825325	-11.993271
	9.926280	17.623501	-3.610160	3.011720	-20.842503	-8.682391	0.000000	0.000000	0.000000	-19.920893	-4.369524	-7.096816	0.789410	5.671743	15.834897	-0.787508	15.488544	-5.436104	0.047845	-1.411645	-3.882216	0.000000	0.000000	0.000000	18.603577	-5.698153	7.643486	-0.934446	-6.157569	17.242287	-0.803720	-13.206660	-26.370165	-0.009333	-0.623781	1.714148	2.351870	0.411918	0.805320	0.848111	0.538334	1.594020	-0.447559	0.289671	1.195250	-1.994520	2.758170	-12.799799	1.084040	3.913040	4.945040	1.005390	1.942330	3.853280	-1.994520	0.000000	0.000000	-97.707367	-34.694969	54.164665	37.416325	-46.462444	-16.541159	0.000000	0.000000	-45.499596	49.545780	19.162622	21.054434	-7.125019	0.000000	0.000000	24.224869	56.460411	7.097361	-1.994520	0.000000	0.000000	96.827522	29.912281	96.054230	-26.403553	37.604431	-9.132800	0.000001	-0.000002	-39.330097	-49.269253	14.862398	-16.587933	7.125019	0.000000	0.000000	-14.006906	-8.371217	-12.198587
	9.915590	17.626699	-3.632030	2.322970	-21.024202	-8.161170	0.000000	0.000000	0.000000	-19.041693	-4.367218	-7.822461	0.847795	5.872658	16.415388	-0.762610	15.249270	-5.369219	0.080090	-1.825515	-5.023699	0.000000	0.000000	0.000000	19.533482	-5.343189	7.582705	-0.885563	-5.998687	16.780611	-0.756955	-13.535447	-26.336559	-0.025223	-1.025275	2.818359	2.842050	0.415104	0.660756	1.052400	0.538340	1.452610	-0.512156	0.292071	1.134560	-1.711420	2.979370	-12.698400	1.044050	4.163381	5.003460	0.957895	2.069870	3.855790	-1.711420	0.000000	-0.000000	-97.368141	-35.417706	54.319382	37.824966	-46.727158	-16.838045	0.000000	0.000000	-45.576195	50.059738	18.763878	21.014927	-7.125019	0.000000	0.000000	24.737848	56.099041	7.039495	-1.711420	0.000000	-0.000000	97.141441	30.449465	95.860443	-26.460556	37.659878	-9.167604	0.000000	0.000000	-38.799988	-48.788071	14.348696	-15.799744	7.125019	0.000000	0.000000	-13.837522	-9.243198	-11.793796
	9.906790	17.627100	-3.639560	2.007020	-21.160400	-8.027331	0.000000	0.000000	0.000000	-18.626698	-4.448650	-8.015838	0.878943	5.976808	16.717146	-0.750185	15.137330	-5.005091	0.177719	-2.715449	-7.487520	0.000000	0.000000	0.000000	19.980289	-5.122445	7.728210	-0.861942	-5.920213	16.553101	-0.734219	-13.726556	-26.354307	-0.022467	-0.967670	2.659859	3.087620	0.457871	0.658121	1.169860	0.598112	1.299630	-0.529856	0.320630	0.982515	-1.681200	3.087491	-11.998700	1.011780	4.294200	4.648840	0.926299	2.136490	3.590800	-1.681200	-0.000000	-0.000000	-97.094124	-35.976658	54.482632	38.293003	-47.025410	-17.179655	0.000000	0.000000	-45.690395	50.471127	18.793798	21.326399	-7.125019	0.000000	0.000000	25.298532	56.260933	7.315575	-1.681200	-0.000000	-0.000000	97.239204	30.891685	95.720222	-26.556658	37.753117	-9.226382	0.000001	-0.000002	-38.458004	-48.328228	13.970513	-15.175549	7.125019	0.000000	0.000000	-13.645033	-9.912834	-11.430061
	9.905500	17.627001	-3.627570	2.422440	-21.158600	-8.470531	0.000000	0.000000	0.000000	-19.113253	-4.554193	-7.545040	0.874489	5.962033	16.674305	-0.770527	15.332241	-5.142954	0.190595	-2.811589	-7.754640	0.000000	0.000000	0.000000	19.436728	-5.368695	8.023600	-0.867820	-5.939848	16.609993	-0.742959	-13.545112	-26.237280	-0.007872	-0.572983	1.574510	2.800910	0.453548	0.779198	1.040920	0.598386	1.301100	-0.502719	0.318179	0.914131	-1.503630	3.127520	-11.602402	0.864461	4.326060	4.481150	0.835293	2.150280	3.460850	-1.503630	0.000000	0.000000	-96.853767	-36.598946	54.548820	38.602955	-47.220066	-17.406797	-0.000001	0.000002	-45.375786	49.919582	19.935400	22.057037	-7.125019	0.000000	0.000000	25.060247	57.562069	8.044444	-1.503630	0.000000	0.000000	97.403030	31.426483	95.751785	-26.680590	37.872879	-9.302359	0.000000	0.000000	-38.274689	-48.473854	14.339273	-15.624978	7.125019	0.000000	0.000000	-13.647819	-9.359829	-11.589157
	9.903280	17.626101	-3.624220	3.109980	-21.116600	-8.866400	0.000000	0.000000	0.000000	-19.867577	-4.474061	-7.235101	0.852748	5.889356	16.463730	-0.788203	15.502634	-5.166595	0.171384	-2.666883	-7.352658	0.000000	0.000000	0.000000	18.619125	-5.590886	8.064345	-0.883519	-5.991940	16.761036	-0.767383	-13.261676	-26.142153	-0.007255	-0.549973	1.511265	2.148830	0.495818	0.846452	0.890141	0.657334	1.308730	-0.292891	0.342458	0.879616	-0.524202	3.028760	-12.364100	-0.326473	4.152511	5.328661	0.286886	2.020380	3.963970	-0.524202	-0.000000	0.000000	-96.822365	-37.339691	54.812332	38.774998	-47.327148	-17.533178	-0.000001	0.000002	-45.094296	49.166485	20.235781	21.813120	-7.125019	0.000000	0.000000	24.152506	57.716309	7.820418	-0.524202	-0.000000	0.000000	97.551292	32.067104	95.557510	-26.742186	37.932228	-9.340200	0.000000	0.000000	-37.824596	-48.623577	14.324036	-15.687891	7.125019	0.000000	0.000000	-13.742971	-9.331583	-11.683034
	9.898350	17.620899	-3.627140	3.377980	-20.993603	-9.052331	0.000000	0.000000	0.000000	-20.160025	-4.356817	-7.083339	0.835442	5.830782	16.294226	-0.784117	15.468927	-5.020140	0.166198	-2.626424	-7.240354	0.000000	0.000000	0.000000	18.333082	-5.677110	8.072172	-0.899367	-6.044023	16.912203	-0.799654	-13.155680	-26.288158	-0.013603	-0.753047	2.069546	1.906700	0.552790	0.936106	0.839767	0.737251	1.231720	-0.210514	0.379286	0.749500	1.586560	2.811760	-14.020000	-3.169580	3.809960	7.477121	-0.935196	1.713490	4.609870	1.586560	-0.000000	0.000000	-96.806389	-38.000477	55.305244	39.069199	-47.508648	-17.749796	0.000001	-0.000002	-45.070305	49.661274	18.930090	20.907475	-7.125019	0.000000	0.000000	24.281485	56.195385	6.956178	1.586560	-0.000000	0.000000	97.639839	32.577599	95.003082	-26.748695	37.938484	-9.344206	-0.000001	0.000002	-37.151703	-48.503464	14.217216	-15.516380	7.125019	0.000000	0.000000	-13.694674	-9.517657	-11.586658
